<?xml version="1.0" encoding="UTF-8" standalone="no"?>
<!-- Uploaded to: SVG Repo, www.svgrepo.com, Generator: SVG Repo Mixer Tools -->

<svg
   height="800px"
   width="800px"
   version="1.1"
   id="_x32_"
   viewBox="0 0 512 512"
   xml:space="preserve"
   sodipodi:docname="brightness-svgrepo-com.svg"
   inkscape:version="1.4 (e7c3feb100, 2024-10-09)"
   xmlns:inkscape="http://www.inkscape.org/namespaces/inkscape"
   xmlns:sodipodi="http://sodipodi.sourceforge.net/DTD/sodipodi-0.dtd"
   xmlns="http://www.w3.org/2000/svg"
   xmlns:svg="http://www.w3.org/2000/svg"><defs
   id="defs2" /><sodipodi:namedview
   id="namedview2"
   pagecolor="#505050"
   bordercolor="#ffffff"
   borderopacity="1"
   inkscape:showpageshadow="0"
   inkscape:pageopacity="0"
   inkscape:pagecheckerboard="1"
   inkscape:deskcolor="#505050"
   inkscape:zoom="0.61070215"
   inkscape:cx="415.9147"
   inkscape:cy="391.35281"
   inkscape:window-width="1920"
   inkscape:window-height="1023"
   inkscape:window-x="0"
   inkscape:window-y="17"
   inkscape:window-maximized="1"
   inkscape:current-layer="g2" />
<style
   type="text/css"
   id="style1">
	.st0{fill:#000000;}
</style>
<g
   id="g2">
	<path
   class="st0"
   d="M512,256l-61.566-52.111l27.283-75.919l-79.414-14.273L384.03,34.273l-75.919,27.292L256,0l-52.111,61.565   L127.97,34.283l-14.273,79.414L34.273,127.97l27.292,75.919L0,256l61.565,52.111L34.282,384.03l79.415,14.273l14.273,79.424   l75.919-27.292L256,512l52.111-61.565l75.919,27.282l14.273-79.414l79.424-14.273l-27.293-75.919L512,256z M256,427.464   c-94.687,0-171.474-76.777-171.474-171.464S161.313,84.536,256,84.536S427.474,161.313,427.474,256S350.687,427.464,256,427.464z"
   id="path1"
   style="fill:#e5e5e5;fill-opacity:1" />
	<path
   class="st0"
   d="m 256,107.39626 c -82.07783,0 -148.60304,66.52634 -148.60304,148.60304 0,82.0767 66.52521,148.61544 148.60304,148.61544 82.07783,0 148.60304,-66.53761 148.60304,-148.61544 0,-82.07783 -66.52521,-148.60304 -148.60304,-148.60304 z"
   id="path2"
   sodipodi:nodetypes="sssss"
   style="stroke-width:1.12716;fill:#e5e5e5;fill-opacity:1" />
</g>
</svg>
