<?xml version="1.0" encoding="UTF-8" standalone="no"?>
<!-- Uploaded to: SVG Repo, www.svgrepo.com, Generator: SVG Repo Mixer Tools -->

<svg
   height="800px"
   width="800px"
   version="1.1"
   id="_x32_"
   viewBox="0 0 512 512"
   xml:space="preserve"
   sodipodi:docname="brightness-half-svgrepo-com.svg"
   inkscape:version="1.4 (e7c3feb100, 2024-10-09)"
   xmlns:inkscape="http://www.inkscape.org/namespaces/inkscape"
   xmlns:sodipodi="http://sodipodi.sourceforge.net/DTD/sodipodi-0.dtd"
   xmlns="http://www.w3.org/2000/svg"
   xmlns:svg="http://www.w3.org/2000/svg"><defs
   id="defs2" /><sodipodi:namedview
   id="namedview2"
   pagecolor="#505050"
   bordercolor="#ffffff"
   borderopacity="1"
   inkscape:showpageshadow="0"
   inkscape:pageopacity="0"
   inkscape:pagecheckerboard="1"
   inkscape:deskcolor="#505050"
   inkscape:zoom="0.61070215"
   inkscape:cx="417.55216"
   inkscape:cy="391.35281"
   inkscape:window-width="1920"
   inkscape:window-height="1023"
   inkscape:window-x="0"
   inkscape:window-y="17"
   inkscape:window-maximized="1"
   inkscape:current-layer="g2" />
<style
   type="text/css"
   id="style1">
	.st0{fill:#000000;}
</style>
<g
   id="g2">
	<path
   class="st0"
   d="M 512,256 450.434,203.889 477.717,127.97 398.303,113.697 384.03,34.273 308.111,61.565 256,0 203.889,61.565 127.97,34.283 113.697,113.697 34.273,127.97 61.565,203.889 0,256 61.565,308.111 34.282,384.03 113.697,398.303 127.97,477.727 203.889,450.435 256,512 l 52.111,-61.565 75.919,27.282 14.273,-79.414 79.424,-14.273 -27.293,-75.919 z M 256,427.464 C 161.313,427.464 84.526,350.687 84.526,256 84.526,161.313 161.313,84.536 256,84.536 c 94.687,0 171.474,76.777 171.474,171.464 0,94.687 -76.787,171.464 -171.474,171.464 z"
   id="path1"
   style="fill:#e5e5e5;fill-opacity:1"
   sodipodi:nodetypes="cccccccccccccccccccccccccsssss" />
	<path
   id="path2"
   style="fill:#e5e5e5;fill-opacity:1;stroke-width:1.12716"
   class="st0"
   inkscape:label="circle"
   d="M 256 107.39625 C 173.92217 107.39625 107.3975 173.92205 107.3975 255.99875 C 107.3975 338.07545 173.92217 404.615 256 404.615 L 256 107.39625 z " />
</g>
</svg>
