<?xml version="1.0" encoding="UTF-8" standalone="no"?>
<!-- Uploaded to: SVG Repo, www.svgrepo.com, Generator: SVG Repo Mixer Tools -->

<svg
   width="800px"
   height="800px"
   viewBox="0 0 48 48"
   version="1.1"
   id="svg2"
   sodipodi:docname="keyboard-capslocked-svgrepo-com.svg"
   inkscape:version="1.4 (e7c3feb100, 2024-10-09)"
   xmlns:inkscape="http://www.inkscape.org/namespaces/inkscape"
   xmlns:sodipodi="http://sodipodi.sourceforge.net/DTD/sodipodi-0.dtd"
   xmlns="http://www.w3.org/2000/svg"
   xmlns:svg="http://www.w3.org/2000/svg"
   xmlns:rdf="http://www.w3.org/1999/02/22-rdf-syntax-ns#"
   xmlns:cc="http://creativecommons.org/ns#"
   xmlns:dc="http://purl.org/dc/elements/1.1/">
  <sodipodi:namedview
     id="namedview1"
     pagecolor="#505050"
     bordercolor="#ffffff"
     borderopacity="1"
     inkscape:showpageshadow="0"
     inkscape:pageopacity="0"
     inkscape:pagecheckerboard="1"
     inkscape:deskcolor="#505050"
     inkscape:zoom="0.27625"
     inkscape:cx="400"
     inkscape:cy="398.19005"
     inkscape:window-width="1920"
     inkscape:window-height="1023"
     inkscape:window-x="0"
     inkscape:window-y="17"
     inkscape:window-maximized="1"
     inkscape:current-layer="svg2" />
  <defs
     id="defs2" />
  <title
     id="title1">keyboard-capslock</title>
  <g
     id="Layer_2"
     data-name="Layer 2">
    <g
       id="invisible_box"
       data-name="invisible box">
      <rect
         width="48"
         height="48"
         fill="none"
         id="rect1" />
    </g>
    <g
       id="Q3_icons"
       data-name="Q3 icons">
      <path
         d="m 24,2 c -0.527539,0.00751 -1.030739,0.2231715 -1.4,0.6 l -20,20 C 1.3686347,23.855897 2.2413282,25.975295 4,26 h 7 v 4 c 0,1.104569 0.895431,2 2,2 h 22 c 1.104569,0 2,-0.895431 2,-2 v -4 h 7 c 1.758672,-0.02471 2.631365,-2.144103 1.4,-3.4 l -20,-20 C 25.030739,2.2231715 24.527539,2.0075141 24,2 Z"
         id="path1"
         style="opacity:1;fill:#e5e5e5;stroke:none;stroke-opacity:1;fill-opacity:1" />
      <path
         d="M 35,36 H 13 c -1.104569,0 -2,0.895431 -2,2 v 6 c 0,1.104569 0.895431,2 2,2 h 22 c 1.104569,0 2,-0.895431 2,-2 v -6 c 0,-1.104569 -0.895431,-2 -2,-2 z"
         id="path2"
         inkscape:label="path2"
         style="fill:#e5e5e5;fill-opacity:1" />
    </g>
  </g>
  <metadata
     id="metadata2">
    <rdf:RDF>
      <cc:Work
         rdf:about="">
        <dc:title>keyboard-capslock</dc:title>
      </cc:Work>
    </rdf:RDF>
  </metadata>
</svg>
