<?xml version="1.0" encoding="UTF-8" standalone="no"?>
<!-- Uploaded to: SVG Repo, www.svgrepo.com, Generator: SVG Repo Mixer Tools -->

<svg
   width="800px"
   height="800px"
   viewBox="0 0 24 24"
   fill="none"
   version="1.1"
   id="svg1"
   sodipodi:docname="forward-step-svgrepo-com.svg"
   inkscape:version="1.4 (e7c3feb100, 2024-10-09)"
   xmlns:inkscape="http://www.inkscape.org/namespaces/inkscape"
   xmlns:sodipodi="http://sodipodi.sourceforge.net/DTD/sodipodi-0.dtd"
   xmlns="http://www.w3.org/2000/svg"
   xmlns:svg="http://www.w3.org/2000/svg">
  <defs
     id="defs1" />
  <sodipodi:namedview
     id="namedview1"
     pagecolor="#505050"
     bordercolor="#ffffff"
     borderopacity="1"
     inkscape:showpageshadow="0"
     inkscape:pageopacity="0"
     inkscape:pagecheckerboard="1"
     inkscape:deskcolor="#505050"
     inkscape:zoom="0.9925"
     inkscape:cx="399.49622"
     inkscape:cy="400"
     inkscape:window-width="1920"
     inkscape:window-height="1023"
     inkscape:window-x="0"
     inkscape:window-y="17"
     inkscape:window-maximized="1"
     inkscape:current-layer="svg1" />
  <path
     d="M17 5V19M7 7.329V16.671C7 17.7367 7 18.2695 7.21846 18.5432C7.40845 18.7812 7.69654 18.9197 8.00108 18.9194C8.35125 18.919 8.76734 18.5861 9.59951 17.9204L13.8765 14.4988C14.9442 13.6446 15.4781 13.2176 15.6713 12.7016C15.8408 12.2492 15.8408 11.7508 15.6713 11.2984C15.4781 10.7824 14.9442 10.3554 13.8765 9.50122L9.59951 6.07961C8.76734 5.41387 8.35125 5.081 8.00108 5.08063C7.69654 5.0803 7.40845 5.21876 7.21846 5.45677C7 5.73045 7 6.2633 7 7.329Z"
     stroke="#000000"
     stroke-width="2"
     stroke-linecap="round"
     stroke-linejoin="round"
     id="path1"
     style="stroke:#e5e5e5;stroke-opacity:1" />
</svg>
