<?xml version="1.0" encoding="UTF-8" standalone="no"?>
<!-- Uploaded to: SVG Repo, www.svgrepo.com, Generator: SVG Repo Mixer Tools -->

<svg
   width="800px"
   height="800px"
   viewBox="0 0 24 24"
   fill="none"
   version="1.1"
   id="svg2"
   sodipodi:docname="pause-svgrepo-com.svg"
   inkscape:version="1.4 (e7c3feb100, 2024-10-09)"
   xmlns:inkscape="http://www.inkscape.org/namespaces/inkscape"
   xmlns:sodipodi="http://sodipodi.sourceforge.net/DTD/sodipodi-0.dtd"
   xmlns="http://www.w3.org/2000/svg"
   xmlns:svg="http://www.w3.org/2000/svg">
  <defs
     id="defs2" />
  <sodipodi:namedview
     id="namedview2"
     pagecolor="#505050"
     bordercolor="#ffffff"
     borderopacity="1"
     inkscape:showpageshadow="0"
     inkscape:pageopacity="0"
     inkscape:pagecheckerboard="1"
     inkscape:deskcolor="#505050"
     inkscape:zoom="0.9925"
     inkscape:cx="400.50378"
     inkscape:cy="400"
     inkscape:window-width="1920"
     inkscape:window-height="1023"
     inkscape:window-x="0"
     inkscape:window-y="17"
     inkscape:window-maximized="1"
     inkscape:current-layer="svg2" />
  <path
     d="M2 18C2 19.8856 2 20.8284 2.58579 21.4142C3.17157 22 4.11438 22 6 22C7.88562 22 8.82843 22 9.41421 21.4142C10 20.8284 10 19.8856 10 18V6C10 4.11438 10 3.17157 9.41421 2.58579C8.82843 2 7.88562 2 6 2C4.11438 2 3.17157 2 2.58579 2.58579C2 3.17157 2 4.11438 2 6V14"
     stroke="#1C274C"
     stroke-width="1.5"
     stroke-linecap="round"
     id="path1"
     style="stroke:#e5e5e5;stroke-opacity:1" />
  <path
     d="M22 6C22 4.11438 22 3.17157 21.4142 2.58579C20.8284 2 19.8856 2 18 2C16.1144 2 15.1716 2 14.5858 2.58579C14 3.17157 14 4.11438 14 6V18C14 19.8856 14 20.8284 14.5858 21.4142C15.1716 22 16.1144 22 18 22C19.8856 22 20.8284 22 21.4142 21.4142C22 20.8284 22 19.8856 22 18V10"
     stroke="#1C274C"
     stroke-width="1.5"
     stroke-linecap="round"
     id="path2"
     style="stroke:#e5e5e5;stroke-opacity:1" />
</svg>
