<?xml version="1.0" encoding="UTF-8" standalone="no"?>
<!-- Uploaded to: SVG Repo, www.svgrepo.com, Generator: SVG Repo Mixer Tools -->

<svg
   width="800px"
   height="800px"
   viewBox="0 0 24 24"
   fill="none"
   version="1.1"
   id="svg3"
   sodipodi:docname="volume-muted.svg"
   inkscape:version="1.4 (e7c3feb100, 2024-10-09)"
   xmlns:inkscape="http://www.inkscape.org/namespaces/inkscape"
   xmlns:sodipodi="http://sodipodi.sourceforge.net/DTD/sodipodi-0.dtd"
   xmlns="http://www.w3.org/2000/svg"
   xmlns:svg="http://www.w3.org/2000/svg">
  <defs
     id="defs3" />
  <sodipodi:namedview
     id="namedview3"
     pagecolor="#505050"
     bordercolor="#ffffff"
     borderopacity="1"
     inkscape:showpageshadow="0"
     inkscape:pageopacity="0"
     inkscape:pagecheckerboard="1"
     inkscape:deskcolor="#505050"
     inkscape:zoom="0.5452854"
     inkscape:cx="444.72124"
     inkscape:cy="361.2787"
     inkscape:window-width="1920"
     inkscape:window-height="1023"
     inkscape:window-x="0"
     inkscape:window-y="17"
     inkscape:window-maximized="1"
     inkscape:current-layer="svg3" />
  <path
     d="m 13,3.7446415 c 0,-0.47146 -0.1272,-1.24439 -0.8343,-1.60036 -0.7506,-0.37789 -1.4494,0.0493 -1.8034,0.36734 l -5.41569,4.92559 H 3 c -1.10457,0 -2,0.89543 -2,2 l 1e-5,5.1876305 c 0,1.1045 0.89543,2 2,2 h 1.95 l 5.41229,4.8643 c 0.3552,0.319 1.0537,0.744 1.8033,0.3663 0.7061,-0.3556 0.8344,-1.1268 0.8344,-1.5993 z"
     fill="#000000"
     id="path1"
     style="fill:#e5e5e5;fill-opacity:1" />
  <path
     d="m 22.077175,15.676718 c -0.3905,0.3906 -1.0237,0.3906 -1.4142,1e-4 l -1.908999,-1.909 -1.909,1.909 c -0.3905,0.3905 -1.0237,0.3905 -1.4142,-1e-4 l -0.3535,-0.3535 c -0.3906,-0.3905 -0.3906,-1.0237 0,-1.4142 l 1.9089,-1.909 -1.909,-1.909 c -0.3905,-0.3905595 -0.3905,-1.0237295 0,-1.4142495 l 0.3535,-0.35355 c 0.3906,-0.39053 1.0237,-0.39053 1.4143,-10e-6 l 1.909,1.9090095 1.908999,-1.9090095 c 0.3906,-0.39052 1.0237,-0.39052 1.4143,10e-6 l 0.3535,0.35355 c 0.3905,0.39052 0.3905,1.02369 0,1.4142495 l -1.908999,1.909 1.908899,1.909 c 0.3906,0.3905 0.3906,1.0237 0,1.4142 z"
     fill="#000000"
     id="path2"
     style="fill:#e5e5e5;fill-opacity:1" />
</svg>
