<?xml version="1.0" encoding="UTF-8" standalone="no"?>
<!-- Uploaded to: SVG Repo, www.svgrepo.com, Generator: SVG Repo Mixer Tools -->

<svg
   width="800px"
   height="800px"
   viewBox="0 0 24 24"
   fill="none"
   version="1.1"
   id="svg3"
   sodipodi:docname="volume-medium.svg"
   inkscape:version="1.4 (e7c3feb100, 2024-10-09)"
   xmlns:inkscape="http://www.inkscape.org/namespaces/inkscape"
   xmlns:sodipodi="http://sodipodi.sourceforge.net/DTD/sodipodi-0.dtd"
   xmlns="http://www.w3.org/2000/svg"
   xmlns:svg="http://www.w3.org/2000/svg">
  <defs
     id="defs3" />
  <sodipodi:namedview
     id="namedview3"
     pagecolor="#505050"
     bordercolor="#ffffff"
     borderopacity="1"
     inkscape:showpageshadow="0"
     inkscape:pageopacity="0"
     inkscape:pagecheckerboard="1"
     inkscape:deskcolor="#505050"
     inkscape:zoom="0.5452854"
     inkscape:cx="444.72124"
     inkscape:cy="361.2787"
     inkscape:window-width="1920"
     inkscape:window-height="1023"
     inkscape:window-x="0"
     inkscape:window-y="17"
     inkscape:window-maximized="1"
     inkscape:current-layer="svg3" />
  <path
     d="M13 3.7446C13 3.27314 12.8728 2.50021 12.1657 2.14424C11.4151 1.76635 10.7163 2.19354 10.3623 2.51158L4.94661 7.43717H3C1.89543 7.43717 1 8.3326 1 9.43717L1.00001 14.6248C1.00001 15.7293 1.89544 16.6248 3.00001 16.6248H4.95001L10.3623 21.4891C10.7175 21.8081 11.416 22.2331 12.1656 21.8554C12.8717 21.4998 13 20.7286 13 20.2561V3.7446Z"
     fill="#000000"
     id="path1"
     style="fill:#e5e5e5;fill-opacity:1" />
  <path
     d="m 15.877527,8.5588887 c -0.316726,-0.316741 -0.830298,-0.316741 -1.147023,0 -0.316724,0.3167491 -0.316724,0.8302894 0,1.1470385 1.266981,1.2670048 1.266981,3.3211328 0,4.5881128 -0.316724,0.316726 -0.316724,0.830298 0,1.147023 0.316725,0.316806 0.830297,0.316806 1.147023,0 1.900511,-1.900431 1.900511,-4.981704 0,-6.8821743 z"
     id="path3-7"
     style="fill:#e5e5e5;fill-opacity:1;stroke-width:0.811075" />
  <path
     d="m 18.171652,6.2648382 c -0.316725,-0.316741 -0.830298,-0.316741 -1.147022,0 -0.316725,0.3167491 -0.316725,0.8302893 0,1.1470384 2.53396,2.5339526 2.53396,6.6423144 0,9.1762744 -0.316725,0.316726 -0.316725,0.830298 0,1.147023 0.316724,0.316724 0.830297,0.316724 1.147022,0 3.167491,-3.167411 3.167491,-8.3028853 0,-11.4703358 z"
     id="path2-5"
     inkscape:label="path2"
     sodipodi:nodetypes="cccsscc"
     style="fill:#e5e5e5;fill-opacity:1;stroke-width:0.811075" />
</svg>
